ISO-10303-21;
HEADER;
/* Generated by software containing ST-Developer
 * from STEP Tools, Inc. (www.steptools.com) 
 */

FILE_DESCRIPTION(
/* description */ (''),
/* implementation_level */ '2;1');

FILE_NAME(
/* name */ 'BackPanel.step',
/* time_stamp */ '2026-09-24T21:05:45-05:00',
/* author */ (''),
/* organization */ (''),
/* preprocessor_version */ 'ST-DEVELOPER v20.2',
/* originating_system */ 'Autodesk Translation Framework v15.15.0.0',
/* authorisation */ '');

FILE_SCHEMA (('AUTOMOTIVE_DESIGN { 1 0 10303 214 3 1 1 }'));
ENDSEC;

DATA;
#10=MECHANICAL_DESIGN_GEOMETRIC_PRESENTATION_REPRESENTATION('',(#17),#688);
#11=ITEM_DEFINED_TRANSFORMATION($,$,#408,#454);
#12=(
REPRESENTATION_RELATIONSHIP($,$,#702,#701)
REPRESENTATION_RELATIONSHIP_WITH_TRANSFORMATION(#11)
SHAPE_REPRESENTATION_RELATIONSHIP()
);
#13=CONTEXT_DEPENDENT_SHAPE_REPRESENTATION(#12,#700);
#14=NEXT_ASSEMBLY_USAGE_OCCURRENCE('Back Panel with Holes:1',
'Back Panel with Holes:1','Back Panel with Holes:1',#704,#705,
'Back Panel with Holes:1');
#15=SHAPE_REPRESENTATION_RELATIONSHIP('SRR','None',#702,#16);
#16=ADVANCED_BREP_SHAPE_REPRESENTATION('',(#18),#687);
#17=STYLED_ITEM('',(#715),#18);
#18=MANIFOLD_SOLID_BREP('Body1',#394);
#19=FACE_BOUND('',#74,.T.);
#20=FACE_BOUND('',#75,.T.);
#21=FACE_BOUND('',#76,.T.);
#22=FACE_BOUND('',#77,.T.);
#23=FACE_BOUND('',#78,.T.);
#24=FACE_BOUND('',#79,.T.);
#25=FACE_BOUND('',#80,.T.);
#26=FACE_BOUND('',#81,.T.);
#27=FACE_BOUND('',#82,.T.);
#28=FACE_BOUND('',#87,.T.);
#29=FACE_BOUND('',#88,.T.);
#30=FACE_BOUND('',#89,.T.);
#31=FACE_BOUND('',#90,.T.);
#32=FACE_BOUND('',#91,.T.);
#33=FACE_BOUND('',#92,.T.);
#34=FACE_BOUND('',#93,.T.);
#35=FACE_BOUND('',#94,.T.);
#36=FACE_BOUND('',#95,.T.);
#37=PLANE('',#439);
#38=PLANE('',#440);
#39=PLANE('',#446);
#40=PLANE('',#447);
#41=PLANE('',#448);
#42=PLANE('',#452);
#43=FACE_OUTER_BOUND('',#62,.T.);
#44=FACE_OUTER_BOUND('',#63,.T.);
#45=FACE_OUTER_BOUND('',#64,.T.);
#46=FACE_OUTER_BOUND('',#65,.T.);
#47=FACE_OUTER_BOUND('',#66,.T.);
#48=FACE_OUTER_BOUND('',#67,.T.);
#49=FACE_OUTER_BOUND('',#68,.T.);
#50=FACE_OUTER_BOUND('',#69,.T.);
#51=FACE_OUTER_BOUND('',#70,.T.);
#52=FACE_OUTER_BOUND('',#71,.T.);
#53=FACE_OUTER_BOUND('',#72,.T.);
#54=FACE_OUTER_BOUND('',#73,.T.);
#55=FACE_OUTER_BOUND('',#83,.T.);
#56=FACE_OUTER_BOUND('',#84,.T.);
#57=FACE_OUTER_BOUND('',#85,.T.);
#58=FACE_OUTER_BOUND('',#86,.T.);
#59=FACE_OUTER_BOUND('',#96,.T.);
#60=FACE_OUTER_BOUND('',#97,.T.);
#61=FACE_OUTER_BOUND('',#98,.T.);
#62=EDGE_LOOP('',(#260,#261,#262,#263));
#63=EDGE_LOOP('',(#264,#265,#266,#267));
#64=EDGE_LOOP('',(#268,#269,#270,#271));
#65=EDGE_LOOP('',(#272,#273,#274,#275));
#66=EDGE_LOOP('',(#276,#277,#278,#279));
#67=EDGE_LOOP('',(#280,#281,#282,#283));
#68=EDGE_LOOP('',(#284,#285,#286,#287));
#69=EDGE_LOOP('',(#288,#289,#290,#291));
#70=EDGE_LOOP('',(#292,#293,#294,#295));
#71=EDGE_LOOP('',(#296,#297,#298,#299));
#72=EDGE_LOOP('',(#300,#301,#302,#303));
#73=EDGE_LOOP('',(#304,#305,#306,#307,#308,#309,#310,#311));
#74=EDGE_LOOP('',(#312));
#75=EDGE_LOOP('',(#313));
#76=EDGE_LOOP('',(#314));
#77=EDGE_LOOP('',(#315));
#78=EDGE_LOOP('',(#316));
#79=EDGE_LOOP('',(#317));
#80=EDGE_LOOP('',(#318));
#81=EDGE_LOOP('',(#319));
#82=EDGE_LOOP('',(#320));
#83=EDGE_LOOP('',(#321,#322,#323,#324));
#84=EDGE_LOOP('',(#325,#326,#327,#328));
#85=EDGE_LOOP('',(#329,#330,#331,#332));
#86=EDGE_LOOP('',(#333,#334,#335,#336,#337,#338,#339,#340));
#87=EDGE_LOOP('',(#341));
#88=EDGE_LOOP('',(#342));
#89=EDGE_LOOP('',(#343));
#90=EDGE_LOOP('',(#344));
#91=EDGE_LOOP('',(#345));
#92=EDGE_LOOP('',(#346));
#93=EDGE_LOOP('',(#347));
#94=EDGE_LOOP('',(#348));
#95=EDGE_LOOP('',(#349));
#96=EDGE_LOOP('',(#350,#351,#352,#353));
#97=EDGE_LOOP('',(#354,#355,#356,#357));
#98=EDGE_LOOP('',(#358,#359,#360,#361));
#99=LINE('',#582,#124);
#100=LINE('',#588,#125);
#101=LINE('',#594,#126);
#102=LINE('',#600,#127);
#103=LINE('',#606,#128);
#104=LINE('',#612,#129);
#105=LINE('',#618,#130);
#106=LINE('',#624,#131);
#107=LINE('',#630,#132);
#108=LINE('',#637,#133);
#109=LINE('',#640,#134);
#110=LINE('',#643,#135);
#111=LINE('',#645,#136);
#112=LINE('',#646,#137);
#113=LINE('',#649,#138);
#114=LINE('',#653,#139);
#115=LINE('',#657,#140);
#116=LINE('',#663,#141);
#117=LINE('',#664,#142);
#118=LINE('',#667,#143);
#119=LINE('',#668,#144);
#120=LINE('',#670,#145);
#121=LINE('',#675,#146);
#122=LINE('',#678,#147);
#123=LINE('',#680,#148);
#124=VECTOR('',#463,0.285);
#125=VECTOR('',#470,0.1875);
#126=VECTOR('',#477,0.1875);
#127=VECTOR('',#484,0.1875);
#128=VECTOR('',#491,0.1875);
#129=VECTOR('',#498,0.1875);
#130=VECTOR('',#505,0.1875);
#131=VECTOR('',#512,0.1875);
#132=VECTOR('',#519,0.187499999999999);
#133=VECTOR('',#526,0.393700787401575);
#134=VECTOR('',#529,0.393700787401575);
#135=VECTOR('',#532,0.393700787401575);
#136=VECTOR('',#533,0.393700787401575);
#137=VECTOR('',#534,0.393700787401575);
#138=VECTOR('',#537,0.393700787401575);
#139=VECTOR('',#540,0.393700787401575);
#140=VECTOR('',#543,0.393700787401575);
#141=VECTOR('',#550,0.393700787401575);
#142=VECTOR('',#551,0.393700787401575);
#143=VECTOR('',#554,0.393700787401575);
#144=VECTOR('',#555,0.393700787401575);
#145=VECTOR('',#558,0.393700787401575);
#146=VECTOR('',#563,0.393700787401575);
#147=VECTOR('',#568,0.393700787401575);
#148=VECTOR('',#571,0.393700787401575);
#149=CIRCLE('',#410,0.285);
#150=CIRCLE('',#411,0.285);
#151=CIRCLE('',#413,0.1875);
#152=CIRCLE('',#414,0.1875);
#153=CIRCLE('',#416,0.1875);
#154=CIRCLE('',#417,0.1875);
#155=CIRCLE('',#419,0.1875);
#156=CIRCLE('',#420,0.1875);
#157=CIRCLE('',#422,0.1875);
#158=CIRCLE('',#423,0.1875);
#159=CIRCLE('',#425,0.1875);
#160=CIRCLE('',#426,0.1875);
#161=CIRCLE('',#428,0.1875);
#162=CIRCLE('',#429,0.1875);
#163=CIRCLE('',#431,0.1875);
#164=CIRCLE('',#432,0.1875);
#165=CIRCLE('',#434,0.187499999999999);
#166=CIRCLE('',#435,0.187499999999999);
#167=CIRCLE('',#437,0.05);
#168=CIRCLE('',#438,0.05);
#169=CIRCLE('',#441,0.05);
#170=CIRCLE('',#442,0.05);
#171=CIRCLE('',#443,0.05);
#172=CIRCLE('',#445,0.05);
#173=CIRCLE('',#449,0.05);
#174=CIRCLE('',#450,0.05);
#175=VERTEX_POINT('',#579);
#176=VERTEX_POINT('',#581);
#177=VERTEX_POINT('',#585);
#178=VERTEX_POINT('',#587);
#179=VERTEX_POINT('',#591);
#180=VERTEX_POINT('',#593);
#181=VERTEX_POINT('',#597);
#182=VERTEX_POINT('',#599);
#183=VERTEX_POINT('',#603);
#184=VERTEX_POINT('',#605);
#185=VERTEX_POINT('',#609);
#186=VERTEX_POINT('',#611);
#187=VERTEX_POINT('',#615);
#188=VERTEX_POINT('',#617);
#189=VERTEX_POINT('',#621);
#190=VERTEX_POINT('',#623);
#191=VERTEX_POINT('',#627);
#192=VERTEX_POINT('',#629);
#193=VERTEX_POINT('',#633);
#194=VERTEX_POINT('',#634);
#195=VERTEX_POINT('',#636);
#196=VERTEX_POINT('',#638);
#197=VERTEX_POINT('',#642);
#198=VERTEX_POINT('',#644);
#199=VERTEX_POINT('',#648);
#200=VERTEX_POINT('',#650);
#201=VERTEX_POINT('',#652);
#202=VERTEX_POINT('',#654);
#203=VERTEX_POINT('',#656);
#204=VERTEX_POINT('',#660);
#205=VERTEX_POINT('',#661);
#206=VERTEX_POINT('',#666);
#207=VERTEX_POINT('',#672);
#208=VERTEX_POINT('',#674);
#209=EDGE_CURVE('',#175,#175,#149,.T.);
#210=EDGE_CURVE('',#175,#176,#99,.T.);
#211=EDGE_CURVE('',#176,#176,#150,.T.);
#212=EDGE_CURVE('',#177,#177,#151,.T.);
#213=EDGE_CURVE('',#177,#178,#100,.T.);
#214=EDGE_CURVE('',#178,#178,#152,.T.);
#215=EDGE_CURVE('',#179,#179,#153,.T.);
#216=EDGE_CURVE('',#179,#180,#101,.T.);
#217=EDGE_CURVE('',#180,#180,#154,.T.);
#218=EDGE_CURVE('',#181,#181,#155,.T.);
#219=EDGE_CURVE('',#181,#182,#102,.T.);
#220=EDGE_CURVE('',#182,#182,#156,.T.);
#221=EDGE_CURVE('',#183,#183,#157,.T.);
#222=EDGE_CURVE('',#183,#184,#103,.T.);
#223=EDGE_CURVE('',#184,#184,#158,.T.);
#224=EDGE_CURVE('',#185,#185,#159,.T.);
#225=EDGE_CURVE('',#185,#186,#104,.T.);
#226=EDGE_CURVE('',#186,#186,#160,.T.);
#227=EDGE_CURVE('',#187,#187,#161,.T.);
#228=EDGE_CURVE('',#187,#188,#105,.T.);
#229=EDGE_CURVE('',#188,#188,#162,.T.);
#230=EDGE_CURVE('',#189,#189,#163,.T.);
#231=EDGE_CURVE('',#189,#190,#106,.T.);
#232=EDGE_CURVE('',#190,#190,#164,.T.);
#233=EDGE_CURVE('',#191,#191,#165,.T.);
#234=EDGE_CURVE('',#191,#192,#107,.T.);
#235=EDGE_CURVE('',#192,#192,#166,.T.);
#236=EDGE_CURVE('',#193,#194,#167,.T.);
#237=EDGE_CURVE('',#194,#195,#108,.T.);
#238=EDGE_CURVE('',#195,#196,#168,.F.);
#239=EDGE_CURVE('',#196,#193,#109,.T.);
#240=EDGE_CURVE('',#196,#197,#110,.F.);
#241=EDGE_CURVE('',#198,#197,#111,.T.);
#242=EDGE_CURVE('',#193,#198,#112,.T.);
#243=EDGE_CURVE('',#195,#199,#113,.F.);
#244=EDGE_CURVE('',#200,#199,#169,.F.);
#245=EDGE_CURVE('',#200,#201,#114,.T.);
#246=EDGE_CURVE('',#202,#201,#170,.F.);
#247=EDGE_CURVE('',#203,#202,#115,.T.);
#248=EDGE_CURVE('',#197,#203,#171,.F.);
#249=EDGE_CURVE('',#204,#205,#172,.T.);
#250=EDGE_CURVE('',#205,#200,#116,.T.);
#251=EDGE_CURVE('',#199,#204,#117,.T.);
#252=EDGE_CURVE('',#205,#206,#118,.T.);
#253=EDGE_CURVE('',#201,#206,#119,.T.);
#254=EDGE_CURVE('',#204,#194,#120,.T.);
#255=EDGE_CURVE('',#207,#198,#173,.T.);
#256=EDGE_CURVE('',#208,#207,#121,.T.);
#257=EDGE_CURVE('',#206,#208,#174,.T.);
#258=EDGE_CURVE('',#208,#202,#122,.T.);
#259=EDGE_CURVE('',#203,#207,#123,.T.);
#260=ORIENTED_EDGE('',*,*,#209,.F.);
#261=ORIENTED_EDGE('',*,*,#210,.T.);
#262=ORIENTED_EDGE('',*,*,#211,.F.);
#263=ORIENTED_EDGE('',*,*,#210,.F.);
#264=ORIENTED_EDGE('',*,*,#212,.F.);
#265=ORIENTED_EDGE('',*,*,#213,.T.);
#266=ORIENTED_EDGE('',*,*,#214,.F.);
#267=ORIENTED_EDGE('',*,*,#213,.F.);
#268=ORIENTED_EDGE('',*,*,#215,.F.);
#269=ORIENTED_EDGE('',*,*,#216,.T.);
#270=ORIENTED_EDGE('',*,*,#217,.F.);
#271=ORIENTED_EDGE('',*,*,#216,.F.);
#272=ORIENTED_EDGE('',*,*,#218,.F.);
#273=ORIENTED_EDGE('',*,*,#219,.T.);
#274=ORIENTED_EDGE('',*,*,#220,.F.);
#275=ORIENTED_EDGE('',*,*,#219,.F.);
#276=ORIENTED_EDGE('',*,*,#221,.F.);
#277=ORIENTED_EDGE('',*,*,#222,.T.);
#278=ORIENTED_EDGE('',*,*,#223,.F.);
#279=ORIENTED_EDGE('',*,*,#222,.F.);
#280=ORIENTED_EDGE('',*,*,#224,.F.);
#281=ORIENTED_EDGE('',*,*,#225,.T.);
#282=ORIENTED_EDGE('',*,*,#226,.F.);
#283=ORIENTED_EDGE('',*,*,#225,.F.);
#284=ORIENTED_EDGE('',*,*,#227,.F.);
#285=ORIENTED_EDGE('',*,*,#228,.T.);
#286=ORIENTED_EDGE('',*,*,#229,.F.);
#287=ORIENTED_EDGE('',*,*,#228,.F.);
#288=ORIENTED_EDGE('',*,*,#230,.F.);
#289=ORIENTED_EDGE('',*,*,#231,.T.);
#290=ORIENTED_EDGE('',*,*,#232,.F.);
#291=ORIENTED_EDGE('',*,*,#231,.F.);
#292=ORIENTED_EDGE('',*,*,#233,.F.);
#293=ORIENTED_EDGE('',*,*,#234,.T.);
#294=ORIENTED_EDGE('',*,*,#235,.F.);
#295=ORIENTED_EDGE('',*,*,#234,.F.);
#296=ORIENTED_EDGE('',*,*,#236,.T.);
#297=ORIENTED_EDGE('',*,*,#237,.T.);
#298=ORIENTED_EDGE('',*,*,#238,.T.);
#299=ORIENTED_EDGE('',*,*,#239,.T.);
#300=ORIENTED_EDGE('',*,*,#239,.F.);
#301=ORIENTED_EDGE('',*,*,#240,.T.);
#302=ORIENTED_EDGE('',*,*,#241,.F.);
#303=ORIENTED_EDGE('',*,*,#242,.F.);
#304=ORIENTED_EDGE('',*,*,#238,.F.);
#305=ORIENTED_EDGE('',*,*,#243,.T.);
#306=ORIENTED_EDGE('',*,*,#244,.F.);
#307=ORIENTED_EDGE('',*,*,#245,.T.);
#308=ORIENTED_EDGE('',*,*,#246,.F.);
#309=ORIENTED_EDGE('',*,*,#247,.F.);
#310=ORIENTED_EDGE('',*,*,#248,.F.);
#311=ORIENTED_EDGE('',*,*,#240,.F.);
#312=ORIENTED_EDGE('',*,*,#214,.T.);
#313=ORIENTED_EDGE('',*,*,#217,.T.);
#314=ORIENTED_EDGE('',*,*,#220,.T.);
#315=ORIENTED_EDGE('',*,*,#223,.T.);
#316=ORIENTED_EDGE('',*,*,#226,.T.);
#317=ORIENTED_EDGE('',*,*,#229,.T.);
#318=ORIENTED_EDGE('',*,*,#232,.T.);
#319=ORIENTED_EDGE('',*,*,#235,.T.);
#320=ORIENTED_EDGE('',*,*,#211,.T.);
#321=ORIENTED_EDGE('',*,*,#249,.T.);
#322=ORIENTED_EDGE('',*,*,#250,.T.);
#323=ORIENTED_EDGE('',*,*,#244,.T.);
#324=ORIENTED_EDGE('',*,*,#251,.T.);
#325=ORIENTED_EDGE('',*,*,#250,.F.);
#326=ORIENTED_EDGE('',*,*,#252,.T.);
#327=ORIENTED_EDGE('',*,*,#253,.F.);
#328=ORIENTED_EDGE('',*,*,#245,.F.);
#329=ORIENTED_EDGE('',*,*,#237,.F.);
#330=ORIENTED_EDGE('',*,*,#254,.F.);
#331=ORIENTED_EDGE('',*,*,#251,.F.);
#332=ORIENTED_EDGE('',*,*,#243,.F.);
#333=ORIENTED_EDGE('',*,*,#236,.F.);
#334=ORIENTED_EDGE('',*,*,#242,.T.);
#335=ORIENTED_EDGE('',*,*,#255,.F.);
#336=ORIENTED_EDGE('',*,*,#256,.F.);
#337=ORIENTED_EDGE('',*,*,#257,.F.);
#338=ORIENTED_EDGE('',*,*,#252,.F.);
#339=ORIENTED_EDGE('',*,*,#249,.F.);
#340=ORIENTED_EDGE('',*,*,#254,.T.);
#341=ORIENTED_EDGE('',*,*,#212,.T.);
#342=ORIENTED_EDGE('',*,*,#215,.T.);
#343=ORIENTED_EDGE('',*,*,#218,.T.);
#344=ORIENTED_EDGE('',*,*,#221,.T.);
#345=ORIENTED_EDGE('',*,*,#224,.T.);
#346=ORIENTED_EDGE('',*,*,#227,.T.);
#347=ORIENTED_EDGE('',*,*,#230,.T.);
#348=ORIENTED_EDGE('',*,*,#233,.T.);
#349=ORIENTED_EDGE('',*,*,#209,.T.);
#350=ORIENTED_EDGE('',*,*,#246,.T.);
#351=ORIENTED_EDGE('',*,*,#253,.T.);
#352=ORIENTED_EDGE('',*,*,#257,.T.);
#353=ORIENTED_EDGE('',*,*,#258,.T.);
#354=ORIENTED_EDGE('',*,*,#258,.F.);
#355=ORIENTED_EDGE('',*,*,#256,.T.);
#356=ORIENTED_EDGE('',*,*,#259,.F.);
#357=ORIENTED_EDGE('',*,*,#247,.T.);
#358=ORIENTED_EDGE('',*,*,#248,.T.);
#359=ORIENTED_EDGE('',*,*,#259,.T.);
#360=ORIENTED_EDGE('',*,*,#255,.T.);
#361=ORIENTED_EDGE('',*,*,#241,.T.);
#362=CYLINDRICAL_SURFACE('',#409,0.285);
#363=CYLINDRICAL_SURFACE('',#412,0.1875);
#364=CYLINDRICAL_SURFACE('',#415,0.1875);
#365=CYLINDRICAL_SURFACE('',#418,0.1875);
#366=CYLINDRICAL_SURFACE('',#421,0.1875);
#367=CYLINDRICAL_SURFACE('',#424,0.1875);
#368=CYLINDRICAL_SURFACE('',#427,0.1875);
#369=CYLINDRICAL_SURFACE('',#430,0.1875);
#370=CYLINDRICAL_SURFACE('',#433,0.187499999999999);
#371=CYLINDRICAL_SURFACE('',#436,0.05);
#372=CYLINDRICAL_SURFACE('',#444,0.05);
#373=CYLINDRICAL_SURFACE('',#451,0.05);
#374=CYLINDRICAL_SURFACE('',#453,0.05);
#375=ADVANCED_FACE('',(#43),#362,.F.);
#376=ADVANCED_FACE('',(#44),#363,.F.);
#377=ADVANCED_FACE('',(#45),#364,.F.);
#378=ADVANCED_FACE('',(#46),#365,.F.);
#379=ADVANCED_FACE('',(#47),#366,.F.);
#380=ADVANCED_FACE('',(#48),#367,.F.);
#381=ADVANCED_FACE('',(#49),#368,.F.);
#382=ADVANCED_FACE('',(#50),#369,.F.);
#383=ADVANCED_FACE('',(#51),#370,.F.);
#384=ADVANCED_FACE('',(#52),#371,.T.);
#385=ADVANCED_FACE('',(#53),#37,.F.);
#386=ADVANCED_FACE('',(#54,#19,#20,#21,#22,#23,#24,#25,#26,#27),#38,.F.);
#387=ADVANCED_FACE('',(#55),#372,.T.);
#388=ADVANCED_FACE('',(#56),#39,.F.);
#389=ADVANCED_FACE('',(#57),#40,.T.);
#390=ADVANCED_FACE('',(#58,#28,#29,#30,#31,#32,#33,#34,#35,#36),#41,.F.);
#391=ADVANCED_FACE('',(#59),#373,.T.);
#392=ADVANCED_FACE('',(#60),#42,.F.);
#393=ADVANCED_FACE('',(#61),#374,.T.);
#394=CLOSED_SHELL('',(#375,#376,#377,#378,#379,#380,#381,#382,#383,#384,
#385,#386,#387,#388,#389,#390,#391,#392,#393));
#395=DERIVED_UNIT_ELEMENT(#397,1.);
#396=DERIVED_UNIT_ELEMENT(#692,-3.);
#397=(
MASS_UNIT()
NAMED_UNIT(*)
SI_UNIT(.KILO.,.GRAM.)
);
#398=DERIVED_UNIT((#395,#396));
#399=MEASURE_REPRESENTATION_ITEM('density measure',
POSITIVE_RATIO_MEASURE(552.),#398);
#400=PROPERTY_DEFINITION_REPRESENTATION(#405,#402);
#401=PROPERTY_DEFINITION_REPRESENTATION(#406,#403);
#402=REPRESENTATION('material name',(#404),#687);
#403=REPRESENTATION('density',(#399),#687);
#404=DESCRIPTIVE_REPRESENTATION_ITEM('Plywood, Finish',
'Plywood, Finish');
#405=PROPERTY_DEFINITION('material property','material name',#705);
#406=PROPERTY_DEFINITION('material property','density of part',#705);
#407=AXIS2_PLACEMENT_3D('',#576,#455,#456);
#408=AXIS2_PLACEMENT_3D('',#577,#457,#458);
#409=AXIS2_PLACEMENT_3D('',#578,#459,#460);
#410=AXIS2_PLACEMENT_3D('',#580,#461,#462);
#411=AXIS2_PLACEMENT_3D('',#583,#464,#465);
#412=AXIS2_PLACEMENT_3D('',#584,#466,#467);
#413=AXIS2_PLACEMENT_3D('',#586,#468,#469);
#414=AXIS2_PLACEMENT_3D('',#589,#471,#472);
#415=AXIS2_PLACEMENT_3D('',#590,#473,#474);
#416=AXIS2_PLACEMENT_3D('',#592,#475,#476);
#417=AXIS2_PLACEMENT_3D('',#595,#478,#479);
#418=AXIS2_PLACEMENT_3D('',#596,#480,#481);
#419=AXIS2_PLACEMENT_3D('',#598,#482,#483);
#420=AXIS2_PLACEMENT_3D('',#601,#485,#486);
#421=AXIS2_PLACEMENT_3D('',#602,#487,#488);
#422=AXIS2_PLACEMENT_3D('',#604,#489,#490);
#423=AXIS2_PLACEMENT_3D('',#607,#492,#493);
#424=AXIS2_PLACEMENT_3D('',#608,#494,#495);
#425=AXIS2_PLACEMENT_3D('',#610,#496,#497);
#426=AXIS2_PLACEMENT_3D('',#613,#499,#500);
#427=AXIS2_PLACEMENT_3D('',#614,#501,#502);
#428=AXIS2_PLACEMENT_3D('',#616,#503,#504);
#429=AXIS2_PLACEMENT_3D('',#619,#506,#507);
#430=AXIS2_PLACEMENT_3D('',#620,#508,#509);
#431=AXIS2_PLACEMENT_3D('',#622,#510,#511);
#432=AXIS2_PLACEMENT_3D('',#625,#513,#514);
#433=AXIS2_PLACEMENT_3D('',#626,#515,#516);
#434=AXIS2_PLACEMENT_3D('',#628,#517,#518);
#435=AXIS2_PLACEMENT_3D('',#631,#520,#521);
#436=AXIS2_PLACEMENT_3D('',#632,#522,#523);
#437=AXIS2_PLACEMENT_3D('',#635,#524,#525);
#438=AXIS2_PLACEMENT_3D('',#639,#527,#528);
#439=AXIS2_PLACEMENT_3D('',#641,#530,#531);
#440=AXIS2_PLACEMENT_3D('',#647,#535,#536);
#441=AXIS2_PLACEMENT_3D('',#651,#538,#539);
#442=AXIS2_PLACEMENT_3D('',#655,#541,#542);
#443=AXIS2_PLACEMENT_3D('',#658,#544,#545);
#444=AXIS2_PLACEMENT_3D('',#659,#546,#547);
#445=AXIS2_PLACEMENT_3D('',#662,#548,#549);
#446=AXIS2_PLACEMENT_3D('',#665,#552,#553);
#447=AXIS2_PLACEMENT_3D('',#669,#556,#557);
#448=AXIS2_PLACEMENT_3D('',#671,#559,#560);
#449=AXIS2_PLACEMENT_3D('',#673,#561,#562);
#450=AXIS2_PLACEMENT_3D('',#676,#564,#565);
#451=AXIS2_PLACEMENT_3D('',#677,#566,#567);
#452=AXIS2_PLACEMENT_3D('',#679,#569,#570);
#453=AXIS2_PLACEMENT_3D('',#681,#572,#573);
#454=AXIS2_PLACEMENT_3D('',#682,#574,#575);
#455=DIRECTION('axis',(0.,0.,1.));
#456=DIRECTION('refdir',(1.,0.,0.));
#457=DIRECTION('axis',(0.,0.,1.));
#458=DIRECTION('refdir',(1.,0.,0.));
#459=DIRECTION('center_axis',(0.,1.,0.));
#460=DIRECTION('ref_axis',(1.,0.,0.));
#461=DIRECTION('center_axis',(0.,1.,0.));
#462=DIRECTION('ref_axis',(1.,0.,0.));
#463=DIRECTION('',(0.,1.,0.));
#464=DIRECTION('center_axis',(0.,-1.,0.));
#465=DIRECTION('ref_axis',(1.,0.,0.));
#466=DIRECTION('center_axis',(0.,1.,0.));
#467=DIRECTION('ref_axis',(1.,0.,0.));
#468=DIRECTION('center_axis',(0.,1.,0.));
#469=DIRECTION('ref_axis',(1.,0.,0.));
#470=DIRECTION('',(0.,1.,0.));
#471=DIRECTION('center_axis',(0.,-1.,0.));
#472=DIRECTION('ref_axis',(1.,0.,0.));
#473=DIRECTION('center_axis',(0.,1.,0.));
#474=DIRECTION('ref_axis',(1.,0.,0.));
#475=DIRECTION('center_axis',(0.,1.,0.));
#476=DIRECTION('ref_axis',(1.,0.,0.));
#477=DIRECTION('',(0.,1.,0.));
#478=DIRECTION('center_axis',(0.,-1.,0.));
#479=DIRECTION('ref_axis',(1.,0.,0.));
#480=DIRECTION('center_axis',(0.,1.,0.));
#481=DIRECTION('ref_axis',(1.,0.,0.));
#482=DIRECTION('center_axis',(0.,1.,0.));
#483=DIRECTION('ref_axis',(1.,0.,0.));
#484=DIRECTION('',(0.,1.,0.));
#485=DIRECTION('center_axis',(0.,-1.,0.));
#486=DIRECTION('ref_axis',(1.,0.,0.));
#487=DIRECTION('center_axis',(0.,1.,0.));
#488=DIRECTION('ref_axis',(1.,0.,0.));
#489=DIRECTION('center_axis',(0.,1.,0.));
#490=DIRECTION('ref_axis',(1.,0.,0.));
#491=DIRECTION('',(0.,1.,0.));
#492=DIRECTION('center_axis',(0.,-1.,0.));
#493=DIRECTION('ref_axis',(1.,0.,0.));
#494=DIRECTION('center_axis',(0.,1.,0.));
#495=DIRECTION('ref_axis',(1.,0.,0.));
#496=DIRECTION('center_axis',(0.,1.,0.));
#497=DIRECTION('ref_axis',(1.,0.,0.));
#498=DIRECTION('',(0.,1.,0.));
#499=DIRECTION('center_axis',(0.,-1.,0.));
#500=DIRECTION('ref_axis',(1.,0.,0.));
#501=DIRECTION('center_axis',(0.,1.,0.));
#502=DIRECTION('ref_axis',(1.,0.,0.));
#503=DIRECTION('center_axis',(0.,1.,0.));
#504=DIRECTION('ref_axis',(1.,0.,0.));
#505=DIRECTION('',(0.,1.,0.));
#506=DIRECTION('center_axis',(0.,-1.,0.));
#507=DIRECTION('ref_axis',(1.,0.,0.));
#508=DIRECTION('center_axis',(0.,1.,0.));
#509=DIRECTION('ref_axis',(1.,0.,0.));
#510=DIRECTION('center_axis',(0.,1.,0.));
#511=DIRECTION('ref_axis',(1.,0.,0.));
#512=DIRECTION('',(0.,1.,0.));
#513=DIRECTION('center_axis',(0.,-1.,0.));
#514=DIRECTION('ref_axis',(1.,0.,0.));
#515=DIRECTION('center_axis',(0.,1.,0.));
#516=DIRECTION('ref_axis',(1.,0.,0.));
#517=DIRECTION('center_axis',(0.,1.,0.));
#518=DIRECTION('ref_axis',(1.,0.,0.));
#519=DIRECTION('',(0.,1.,0.));
#520=DIRECTION('center_axis',(0.,-1.,0.));
#521=DIRECTION('ref_axis',(1.,0.,0.));
#522=DIRECTION('center_axis',(0.,-1.,0.));
#523=DIRECTION('ref_axis',(-0.707106781186554,0.,0.707106781186541));
#524=DIRECTION('center_axis',(0.,1.,0.));
#525=DIRECTION('ref_axis',(-0.707106781186554,0.,0.707106781186541));
#526=DIRECTION('',(0.,1.,0.));
#527=DIRECTION('center_axis',(0.,1.,0.));
#528=DIRECTION('ref_axis',(-0.707106781186554,0.,0.707106781186541));
#529=DIRECTION('',(0.,-1.,0.));
#530=DIRECTION('center_axis',(1.,0.,0.));
#531=DIRECTION('ref_axis',(0.,-1.,0.));
#532=DIRECTION('',(0.,0.,1.));
#533=DIRECTION('',(0.,1.,0.));
#534=DIRECTION('',(0.,0.,-1.));
#535=DIRECTION('center_axis',(0.,-1.,0.));
#536=DIRECTION('ref_axis',(-1.,0.,0.));
#537=DIRECTION('',(-1.,0.,0.));
#538=DIRECTION('center_axis',(0.,1.,0.));
#539=DIRECTION('ref_axis',(0.707106781186544,0.,0.707106781186551));
#540=DIRECTION('',(0.,0.,-1.));
#541=DIRECTION('center_axis',(0.,1.,0.));
#542=DIRECTION('ref_axis',(0.707106781186548,0.,-0.707106781186548));
#543=DIRECTION('',(1.,0.,0.));
#544=DIRECTION('center_axis',(0.,1.,0.));
#545=DIRECTION('ref_axis',(-0.707106781186554,0.,-0.707106781186541));
#546=DIRECTION('center_axis',(0.,-1.,0.));
#547=DIRECTION('ref_axis',(0.707106781186544,0.,0.707106781186551));
#548=DIRECTION('center_axis',(0.,1.,0.));
#549=DIRECTION('ref_axis',(0.707106781186544,0.,0.707106781186551));
#550=DIRECTION('',(0.,1.,0.));
#551=DIRECTION('',(0.,-1.,0.));
#552=DIRECTION('center_axis',(-1.,0.,0.));
#553=DIRECTION('ref_axis',(0.,1.,0.));
#554=DIRECTION('',(0.,0.,-1.));
#555=DIRECTION('',(0.,-1.,0.));
#556=DIRECTION('center_axis',(0.,0.,1.));
#557=DIRECTION('ref_axis',(-1.,0.,0.));
#558=DIRECTION('',(-1.,0.,0.));
#559=DIRECTION('center_axis',(0.,1.,0.));
#560=DIRECTION('ref_axis',(1.,0.,0.));
#561=DIRECTION('center_axis',(0.,1.,0.));
#562=DIRECTION('ref_axis',(-0.707106781186554,0.,-0.707106781186541));
#563=DIRECTION('',(-1.,0.,0.));
#564=DIRECTION('center_axis',(0.,1.,0.));
#565=DIRECTION('ref_axis',(0.707106781186548,0.,-0.707106781186548));
#566=DIRECTION('center_axis',(0.,1.,0.));
#567=DIRECTION('ref_axis',(0.707106781186548,0.,-0.707106781186548));
#568=DIRECTION('',(0.,1.,0.));
#569=DIRECTION('center_axis',(0.,0.,1.));
#570=DIRECTION('ref_axis',(-1.,0.,0.));
#571=DIRECTION('',(0.,-1.,0.));
#572=DIRECTION('center_axis',(0.,1.,0.));
#573=DIRECTION('ref_axis',(-0.707106781186554,0.,-0.707106781186541));
#574=DIRECTION('',(0.,0.,1.));
#575=DIRECTION('',(1.,0.,0.));
#576=CARTESIAN_POINT('',(0.,0.,0.));
#577=CARTESIAN_POINT('',(0.,0.,0.));
#578=CARTESIAN_POINT('Origin',(3.465,4.65,0.8475));
#579=CARTESIAN_POINT('',(3.18,4.65,0.8475));
#580=CARTESIAN_POINT('Origin',(3.465,4.65,0.8475));
#581=CARTESIAN_POINT('',(3.18,4.74,0.8475));
#582=CARTESIAN_POINT('',(3.18,4.65,0.8475));
#583=CARTESIAN_POINT('Origin',(3.465,4.74,0.8475));
#584=CARTESIAN_POINT('Origin',(1.588,4.65,0.7125));
#585=CARTESIAN_POINT('',(1.4005,4.65,0.7125));
#586=CARTESIAN_POINT('Origin',(1.588,4.65,0.7125));
#587=CARTESIAN_POINT('',(1.4005,4.74,0.7125));
#588=CARTESIAN_POINT('',(1.4005,4.65,0.7125));
#589=CARTESIAN_POINT('Origin',(1.588,4.74,0.7125));
#590=CARTESIAN_POINT('Origin',(0.838,4.65,0.7125));
#591=CARTESIAN_POINT('',(0.6505,4.65,0.7125));
#592=CARTESIAN_POINT('Origin',(0.838,4.65,0.7125));
#593=CARTESIAN_POINT('',(0.6505,4.74,0.7125));
#594=CARTESIAN_POINT('',(0.6505,4.65,0.7125));
#595=CARTESIAN_POINT('Origin',(0.838,4.74,0.7125));
#596=CARTESIAN_POINT('Origin',(0.0880000000000002,4.65,0.7125));
#597=CARTESIAN_POINT('',(-0.0994999999999995,4.65,0.7125));
#598=CARTESIAN_POINT('Origin',(0.0880000000000002,4.65,0.7125));
#599=CARTESIAN_POINT('',(-0.0994999999999995,4.74,0.7125));
#600=CARTESIAN_POINT('',(-0.0994999999999995,4.65,0.7125));
#601=CARTESIAN_POINT('Origin',(0.0880000000000002,4.74,0.7125));
#602=CARTESIAN_POINT('Origin',(-0.662,4.65,0.7125));
#603=CARTESIAN_POINT('',(-0.8495,4.65,0.7125));
#604=CARTESIAN_POINT('Origin',(-0.662,4.65,0.7125));
#605=CARTESIAN_POINT('',(-0.8495,4.74,0.7125));
#606=CARTESIAN_POINT('',(-0.8495,4.65,0.7125));
#607=CARTESIAN_POINT('Origin',(-0.662,4.74,0.7125));
#608=CARTESIAN_POINT('Origin',(-1.412,4.65,0.7125));
#609=CARTESIAN_POINT('',(-1.5995,4.65,0.7125));
#610=CARTESIAN_POINT('Origin',(-1.412,4.65,0.7125));
#611=CARTESIAN_POINT('',(-1.5995,4.74,0.7125));
#612=CARTESIAN_POINT('',(-1.5995,4.65,0.7125));
#613=CARTESIAN_POINT('Origin',(-1.412,4.74,0.7125));
#614=CARTESIAN_POINT('Origin',(-2.162,4.65,0.7125));
#615=CARTESIAN_POINT('',(-2.3495,4.65,0.7125));
#616=CARTESIAN_POINT('Origin',(-2.162,4.65,0.7125));
#617=CARTESIAN_POINT('',(-2.3495,4.74,0.7125));
#618=CARTESIAN_POINT('',(-2.3495,4.65,0.7125));
#619=CARTESIAN_POINT('Origin',(-2.162,4.74,0.7125));
#620=CARTESIAN_POINT('Origin',(-2.912,4.65,0.7125));
#621=CARTESIAN_POINT('',(-3.0995,4.65,0.7125));
#622=CARTESIAN_POINT('Origin',(-2.912,4.65,0.7125));
#623=CARTESIAN_POINT('',(-3.0995,4.74,0.7125));
#624=CARTESIAN_POINT('',(-3.0995,4.65,0.7125));
#625=CARTESIAN_POINT('Origin',(-2.912,4.74,0.7125));
#626=CARTESIAN_POINT('Origin',(-3.662,4.65,0.7125));
#627=CARTESIAN_POINT('',(-3.8495,4.65,0.7125));
#628=CARTESIAN_POINT('Origin',(-3.662,4.65,0.7125));
#629=CARTESIAN_POINT('',(-3.8495,4.74,0.7125));
#630=CARTESIAN_POINT('',(-3.8495,4.65,0.7125));
#631=CARTESIAN_POINT('Origin',(-3.662,4.74,0.7125));
#632=CARTESIAN_POINT('Origin',(-4.112,4.72875,1.5575));
#633=CARTESIAN_POINT('',(-4.162,4.65,1.5575));
#634=CARTESIAN_POINT('',(-4.112,4.65,1.6075));
#635=CARTESIAN_POINT('Origin',(-4.112,4.65,1.5575));
#636=CARTESIAN_POINT('',(-4.112,4.74,1.6075));
#637=CARTESIAN_POINT('',(-4.112,4.72875,1.6075));
#638=CARTESIAN_POINT('',(-4.162,4.74,1.5575));
#639=CARTESIAN_POINT('Origin',(-4.112,4.74,1.5575));
#640=CARTESIAN_POINT('',(-4.162,4.72875,1.5575));
#641=CARTESIAN_POINT('Origin',(-4.162,4.755,1.6175));
#642=CARTESIAN_POINT('',(-4.162,4.74,0.1375));
#643=CARTESIAN_POINT('',(-4.162,4.74,1.6175));
#644=CARTESIAN_POINT('',(-4.162,4.65,0.1375));
#645=CARTESIAN_POINT('',(-4.162,4.72875,0.1375));
#646=CARTESIAN_POINT('',(-4.162,4.65,1.6175));
#647=CARTESIAN_POINT('Origin',(4.1625,4.74,1.6175));
#648=CARTESIAN_POINT('',(4.1025,4.74,1.6075));
#649=CARTESIAN_POINT('',(2.081375,4.74,1.6075));
#650=CARTESIAN_POINT('',(4.1525,4.74,1.5575));
#651=CARTESIAN_POINT('Origin',(4.1025,4.74,1.5575));
#652=CARTESIAN_POINT('',(4.1525,4.74,0.1375));
#653=CARTESIAN_POINT('',(4.1525,4.74,1.6175));
#654=CARTESIAN_POINT('',(4.1025,4.74,0.0874999999999998));
#655=CARTESIAN_POINT('Origin',(4.1025,4.74,0.1375));
#656=CARTESIAN_POINT('',(-4.112,4.74,0.0874999999999998));
#657=CARTESIAN_POINT('',(2.081375,4.74,0.0874999999999998));
#658=CARTESIAN_POINT('Origin',(-4.112,4.74,0.1375));
#659=CARTESIAN_POINT('Origin',(4.1025,4.67625,1.5575));
#660=CARTESIAN_POINT('',(4.1025,4.65,1.6075));
#661=CARTESIAN_POINT('',(4.1525,4.65,1.5575));
#662=CARTESIAN_POINT('Origin',(4.1025,4.65,1.5575));
#663=CARTESIAN_POINT('',(4.1525,4.67625,1.5575));
#664=CARTESIAN_POINT('',(4.1025,4.67625,1.6075));
#665=CARTESIAN_POINT('Origin',(4.1525,4.65,1.6175));
#666=CARTESIAN_POINT('',(4.1525,4.65,0.1375));
#667=CARTESIAN_POINT('',(4.1525,4.65,1.6175));
#668=CARTESIAN_POINT('',(4.1525,4.67625,0.1375));
#669=CARTESIAN_POINT('Origin',(0.000250000000000327,4.7025,1.6075));
#670=CARTESIAN_POINT('',(-2.080875,4.65,1.6075));
#671=CARTESIAN_POINT('Origin',(-4.162,4.65,1.6175));
#672=CARTESIAN_POINT('',(-4.112,4.65,0.0874999999999998));
#673=CARTESIAN_POINT('Origin',(-4.112,4.65,0.1375));
#674=CARTESIAN_POINT('',(4.1025,4.65,0.0874999999999998));
#675=CARTESIAN_POINT('',(4.1625,4.65,0.0874999999999998));
#676=CARTESIAN_POINT('Origin',(4.1025,4.65,0.1375));
#677=CARTESIAN_POINT('Origin',(4.1025,4.67625,0.1375));
#678=CARTESIAN_POINT('',(4.1025,4.67625,0.0874999999999998));
#679=CARTESIAN_POINT('Origin',(0.000250000000000327,4.7025,0.0874999999999998));
#680=CARTESIAN_POINT('',(-4.112,4.72875,0.0874999999999998));
#681=CARTESIAN_POINT('Origin',(-4.112,4.72875,0.1375));
#682=CARTESIAN_POINT('',(0.,0.,0.));
#683=UNCERTAINTY_MEASURE_WITH_UNIT(LENGTH_MEASURE(0.000393700787401575),
#690,'DISTANCE_ACCURACY_VALUE',
'Maximum model space distance between geometric entities at asserted c
onnectivities');
#684=UNCERTAINTY_MEASURE_WITH_UNIT(LENGTH_MEASURE(0.000393700787401575),
#690,'DISTANCE_ACCURACY_VALUE',
'Maximum model space distance between geometric entities at asserted c
onnectivities');
#685=UNCERTAINTY_MEASURE_WITH_UNIT(LENGTH_MEASURE(0.000393700787401575),
#690,'DISTANCE_ACCURACY_VALUE',
'Maximum model space distance between geometric entities at asserted c
onnectivities');
#686=(
GEOMETRIC_REPRESENTATION_CONTEXT(3)
GLOBAL_UNCERTAINTY_ASSIGNED_CONTEXT((#683))
GLOBAL_UNIT_ASSIGNED_CONTEXT((#690,#694,#695))
REPRESENTATION_CONTEXT('','3D')
);
#687=(
GEOMETRIC_REPRESENTATION_CONTEXT(3)
GLOBAL_UNCERTAINTY_ASSIGNED_CONTEXT((#684))
GLOBAL_UNIT_ASSIGNED_CONTEXT((#690,#694,#695))
REPRESENTATION_CONTEXT('','3D')
);
#688=(
GEOMETRIC_REPRESENTATION_CONTEXT(3)
GLOBAL_UNCERTAINTY_ASSIGNED_CONTEXT((#685))
GLOBAL_UNIT_ASSIGNED_CONTEXT((#690,#694,#695))
REPRESENTATION_CONTEXT('','3D')
);
#689=DIMENSIONAL_EXPONENTS(1.,0.,0.,0.,0.,0.,0.);
#690=(
CONVERSION_BASED_UNIT('inch',#693)
LENGTH_UNIT()
NAMED_UNIT(#689)
);
#691=(
LENGTH_UNIT()
NAMED_UNIT(*)
SI_UNIT(.MILLI.,.METRE.)
);
#692=(
LENGTH_UNIT()
NAMED_UNIT(*)
SI_UNIT($,.METRE.)
);
#693=LENGTH_MEASURE_WITH_UNIT(LENGTH_MEASURE(25.4),#691);
#694=(
NAMED_UNIT(*)
PLANE_ANGLE_UNIT()
SI_UNIT($,.RADIAN.)
);
#695=(
NAMED_UNIT(*)
SI_UNIT($,.STERADIAN.)
SOLID_ANGLE_UNIT()
);
#696=SHAPE_DEFINITION_REPRESENTATION(#698,#701);
#697=SHAPE_DEFINITION_REPRESENTATION(#699,#702);
#698=PRODUCT_DEFINITION_SHAPE('',$,#704);
#699=PRODUCT_DEFINITION_SHAPE('',$,#705);
#700=PRODUCT_DEFINITION_SHAPE($,$,#14);
#701=SHAPE_REPRESENTATION('',(#407,#454),#686);
#702=SHAPE_REPRESENTATION('',(#408),#687);
#703=PRODUCT_DEFINITION_CONTEXT('part definition',#711,'design');
#704=PRODUCT_DEFINITION('2026-09-10-20-15-11-726','RockmoduleCase',#706,
#703);
#705=PRODUCT_DEFINITION('2026-09-15-12-41-03-421',
'Back Panel with Holes',#707,#703);
#706=PRODUCT_DEFINITION_FORMATION('',$,#713);
#707=PRODUCT_DEFINITION_FORMATION('',$,#714);
#708=PRODUCT_RELATED_PRODUCT_CATEGORY('RockmoduleCase','RockmoduleCase',
(#713));
#709=PRODUCT_RELATED_PRODUCT_CATEGORY('Back Panel with Holes',
'Back Panel with Holes',(#714));
#710=APPLICATION_PROTOCOL_DEFINITION('international standard',
'automotive_design',2009,#711);
#711=APPLICATION_CONTEXT(
'Core Data for Automotive Mechanical Design Process');
#712=PRODUCT_CONTEXT('part definition',#711,'mechanical');
#713=PRODUCT('2026-09-10-20-15-11-726','RockmoduleCase',$,(#712));
#714=PRODUCT('2026-09-15-12-41-03-421','Back Panel with Holes',$,(#712));
#715=PRESENTATION_STYLE_ASSIGNMENT((#716));
#716=SURFACE_STYLE_USAGE(.BOTH.,#717);
#717=SURFACE_SIDE_STYLE('',(#718));
#718=SURFACE_STYLE_FILL_AREA(#719);
#719=FILL_AREA_STYLE('Surface - Matte',(#720));
#720=FILL_AREA_STYLE_COLOUR('Surface - Matte',#721);
#721=COLOUR_RGB('Surface - Matte',0.701960784313725,0.701960784313725,0.701960784313725);
ENDSEC;
END-ISO-10303-21;
