ISO-10303-21;
HEADER;
/* Generated by software containing ST-Developer
 * from STEP Tools, Inc. (www.steptools.com) 
 */

FILE_DESCRIPTION(
/* description */ (''),
/* implementation_level */ '2;1');

FILE_NAME(
/* name */ 'FrontPanel.step',
/* time_stamp */ '2026-09-10T20:10:30-05:00',
/* author */ (''),
/* organization */ (''),
/* preprocessor_version */ 'ST-DEVELOPER v20.2',
/* originating_system */ 'Autodesk Translation Framework v15.15.0.0',
/* authorisation */ '');

FILE_SCHEMA (('AUTOMOTIVE_DESIGN { 1 0 10303 214 3 1 1 }'));
ENDSEC;

DATA;
#10=MECHANICAL_DESIGN_GEOMETRIC_PRESENTATION_REPRESENTATION('',(#17),#353);
#11=ITEM_DEFINED_TRANSFORMATION($,$,#217,#236);
#12=(
REPRESENTATION_RELATIONSHIP($,$,#367,#366)
REPRESENTATION_RELATIONSHIP_WITH_TRANSFORMATION(#11)
SHAPE_REPRESENTATION_RELATIONSHIP()
);
#13=CONTEXT_DEPENDENT_SHAPE_REPRESENTATION(#12,#365);
#14=NEXT_ASSEMBLY_USAGE_OCCURRENCE('Front Panel:1','Front Panel:1',
'Front Panel:1',#369,#370,'Front Panel:1');
#15=SHAPE_REPRESENTATION_RELATIONSHIP('SRR','None',#367,#16);
#16=ADVANCED_BREP_SHAPE_REPRESENTATION('',(#18),#352);
#17=STYLED_ITEM('',(#380),#18);
#18=MANIFOLD_SOLID_BREP('Body1',#203);
#19=FACE_BOUND('',#52,.T.);
#20=FACE_BOUND('',#53,.T.);
#21=FACE_BOUND('',#54,.T.);
#22=FACE_BOUND('',#55,.T.);
#23=FACE_BOUND('',#57,.T.);
#24=FACE_BOUND('',#58,.T.);
#25=FACE_BOUND('',#59,.T.);
#26=FACE_BOUND('',#60,.T.);
#27=PLANE('',#230);
#28=PLANE('',#231);
#29=PLANE('',#232);
#30=PLANE('',#233);
#31=PLANE('',#234);
#32=PLANE('',#235);
#33=FACE_OUTER_BOUND('',#43,.T.);
#34=FACE_OUTER_BOUND('',#44,.T.);
#35=FACE_OUTER_BOUND('',#45,.T.);
#36=FACE_OUTER_BOUND('',#46,.T.);
#37=FACE_OUTER_BOUND('',#47,.T.);
#38=FACE_OUTER_BOUND('',#48,.T.);
#39=FACE_OUTER_BOUND('',#49,.T.);
#40=FACE_OUTER_BOUND('',#50,.T.);
#41=FACE_OUTER_BOUND('',#51,.T.);
#42=FACE_OUTER_BOUND('',#56,.T.);
#43=EDGE_LOOP('',(#141,#142,#143,#144));
#44=EDGE_LOOP('',(#145,#146,#147,#148));
#45=EDGE_LOOP('',(#149,#150,#151,#152));
#46=EDGE_LOOP('',(#153,#154,#155,#156));
#47=EDGE_LOOP('',(#157,#158,#159,#160));
#48=EDGE_LOOP('',(#161,#162,#163,#164));
#49=EDGE_LOOP('',(#165,#166,#167,#168));
#50=EDGE_LOOP('',(#169,#170,#171,#172));
#51=EDGE_LOOP('',(#173,#174,#175,#176));
#52=EDGE_LOOP('',(#177));
#53=EDGE_LOOP('',(#178));
#54=EDGE_LOOP('',(#179));
#55=EDGE_LOOP('',(#180));
#56=EDGE_LOOP('',(#181,#182,#183,#184));
#57=EDGE_LOOP('',(#185));
#58=EDGE_LOOP('',(#186));
#59=EDGE_LOOP('',(#187));
#60=EDGE_LOOP('',(#188));
#61=LINE('',#301,#77);
#62=LINE('',#307,#78);
#63=LINE('',#313,#79);
#64=LINE('',#319,#80);
#65=LINE('',#324,#81);
#66=LINE('',#326,#82);
#67=LINE('',#328,#83);
#68=LINE('',#329,#84);
#69=LINE('',#332,#85);
#70=LINE('',#334,#86);
#71=LINE('',#335,#87);
#72=LINE('',#338,#88);
#73=LINE('',#340,#89);
#74=LINE('',#341,#90);
#75=LINE('',#343,#91);
#76=LINE('',#344,#92);
#77=VECTOR('',#245,0.0624999999999998);
#78=VECTOR('',#252,0.0624999999999998);
#79=VECTOR('',#259,0.0624999999999998);
#80=VECTOR('',#266,0.0624999999999998);
#81=VECTOR('',#271,0.393700787401575);
#82=VECTOR('',#272,0.393700787401575);
#83=VECTOR('',#273,0.393700787401575);
#84=VECTOR('',#274,0.393700787401575);
#85=VECTOR('',#277,0.393700787401575);
#86=VECTOR('',#278,0.393700787401575);
#87=VECTOR('',#279,0.393700787401575);
#88=VECTOR('',#282,0.393700787401575);
#89=VECTOR('',#283,0.393700787401575);
#90=VECTOR('',#284,0.393700787401575);
#91=VECTOR('',#287,0.393700787401575);
#92=VECTOR('',#288,0.393700787401575);
#93=CIRCLE('',#219,0.0624999999999998);
#94=CIRCLE('',#220,0.0624999999999998);
#95=CIRCLE('',#222,0.0624999999999998);
#96=CIRCLE('',#223,0.0624999999999998);
#97=CIRCLE('',#225,0.0624999999999998);
#98=CIRCLE('',#226,0.0624999999999998);
#99=CIRCLE('',#228,0.0624999999999998);
#100=CIRCLE('',#229,0.0624999999999998);
#101=VERTEX_POINT('',#298);
#102=VERTEX_POINT('',#300);
#103=VERTEX_POINT('',#304);
#104=VERTEX_POINT('',#306);
#105=VERTEX_POINT('',#310);
#106=VERTEX_POINT('',#312);
#107=VERTEX_POINT('',#316);
#108=VERTEX_POINT('',#318);
#109=VERTEX_POINT('',#322);
#110=VERTEX_POINT('',#323);
#111=VERTEX_POINT('',#325);
#112=VERTEX_POINT('',#327);
#113=VERTEX_POINT('',#331);
#114=VERTEX_POINT('',#333);
#115=VERTEX_POINT('',#337);
#116=VERTEX_POINT('',#339);
#117=EDGE_CURVE('',#101,#101,#93,.T.);
#118=EDGE_CURVE('',#101,#102,#61,.T.);
#119=EDGE_CURVE('',#102,#102,#94,.T.);
#120=EDGE_CURVE('',#103,#103,#95,.T.);
#121=EDGE_CURVE('',#103,#104,#62,.T.);
#122=EDGE_CURVE('',#104,#104,#96,.T.);
#123=EDGE_CURVE('',#105,#105,#97,.T.);
#124=EDGE_CURVE('',#105,#106,#63,.T.);
#125=EDGE_CURVE('',#106,#106,#98,.T.);
#126=EDGE_CURVE('',#107,#107,#99,.T.);
#127=EDGE_CURVE('',#107,#108,#64,.T.);
#128=EDGE_CURVE('',#108,#108,#100,.T.);
#129=EDGE_CURVE('',#109,#110,#65,.T.);
#130=EDGE_CURVE('',#109,#111,#66,.T.);
#131=EDGE_CURVE('',#112,#111,#67,.T.);
#132=EDGE_CURVE('',#110,#112,#68,.T.);
#133=EDGE_CURVE('',#110,#113,#69,.T.);
#134=EDGE_CURVE('',#114,#112,#70,.T.);
#135=EDGE_CURVE('',#113,#114,#71,.T.);
#136=EDGE_CURVE('',#113,#115,#72,.T.);
#137=EDGE_CURVE('',#116,#114,#73,.T.);
#138=EDGE_CURVE('',#115,#116,#74,.T.);
#139=EDGE_CURVE('',#115,#109,#75,.T.);
#140=EDGE_CURVE('',#111,#116,#76,.T.);
#141=ORIENTED_EDGE('',*,*,#117,.F.);
#142=ORIENTED_EDGE('',*,*,#118,.T.);
#143=ORIENTED_EDGE('',*,*,#119,.T.);
#144=ORIENTED_EDGE('',*,*,#118,.F.);
#145=ORIENTED_EDGE('',*,*,#120,.F.);
#146=ORIENTED_EDGE('',*,*,#121,.T.);
#147=ORIENTED_EDGE('',*,*,#122,.T.);
#148=ORIENTED_EDGE('',*,*,#121,.F.);
#149=ORIENTED_EDGE('',*,*,#123,.F.);
#150=ORIENTED_EDGE('',*,*,#124,.T.);
#151=ORIENTED_EDGE('',*,*,#125,.T.);
#152=ORIENTED_EDGE('',*,*,#124,.F.);
#153=ORIENTED_EDGE('',*,*,#126,.F.);
#154=ORIENTED_EDGE('',*,*,#127,.T.);
#155=ORIENTED_EDGE('',*,*,#128,.T.);
#156=ORIENTED_EDGE('',*,*,#127,.F.);
#157=ORIENTED_EDGE('',*,*,#129,.F.);
#158=ORIENTED_EDGE('',*,*,#130,.T.);
#159=ORIENTED_EDGE('',*,*,#131,.F.);
#160=ORIENTED_EDGE('',*,*,#132,.F.);
#161=ORIENTED_EDGE('',*,*,#133,.F.);
#162=ORIENTED_EDGE('',*,*,#132,.T.);
#163=ORIENTED_EDGE('',*,*,#134,.F.);
#164=ORIENTED_EDGE('',*,*,#135,.F.);
#165=ORIENTED_EDGE('',*,*,#136,.F.);
#166=ORIENTED_EDGE('',*,*,#135,.T.);
#167=ORIENTED_EDGE('',*,*,#137,.F.);
#168=ORIENTED_EDGE('',*,*,#138,.F.);
#169=ORIENTED_EDGE('',*,*,#139,.F.);
#170=ORIENTED_EDGE('',*,*,#138,.T.);
#171=ORIENTED_EDGE('',*,*,#140,.F.);
#172=ORIENTED_EDGE('',*,*,#130,.F.);
#173=ORIENTED_EDGE('',*,*,#140,.T.);
#174=ORIENTED_EDGE('',*,*,#137,.T.);
#175=ORIENTED_EDGE('',*,*,#134,.T.);
#176=ORIENTED_EDGE('',*,*,#131,.T.);
#177=ORIENTED_EDGE('',*,*,#126,.T.);
#178=ORIENTED_EDGE('',*,*,#123,.T.);
#179=ORIENTED_EDGE('',*,*,#120,.T.);
#180=ORIENTED_EDGE('',*,*,#117,.T.);
#181=ORIENTED_EDGE('',*,*,#139,.T.);
#182=ORIENTED_EDGE('',*,*,#129,.T.);
#183=ORIENTED_EDGE('',*,*,#133,.T.);
#184=ORIENTED_EDGE('',*,*,#136,.T.);
#185=ORIENTED_EDGE('',*,*,#128,.F.);
#186=ORIENTED_EDGE('',*,*,#125,.F.);
#187=ORIENTED_EDGE('',*,*,#122,.F.);
#188=ORIENTED_EDGE('',*,*,#119,.F.);
#189=CYLINDRICAL_SURFACE('',#218,0.0624999999999998);
#190=CYLINDRICAL_SURFACE('',#221,0.0624999999999998);
#191=CYLINDRICAL_SURFACE('',#224,0.0624999999999998);
#192=CYLINDRICAL_SURFACE('',#227,0.0624999999999998);
#193=ADVANCED_FACE('',(#33),#189,.F.);
#194=ADVANCED_FACE('',(#34),#190,.F.);
#195=ADVANCED_FACE('',(#35),#191,.F.);
#196=ADVANCED_FACE('',(#36),#192,.F.);
#197=ADVANCED_FACE('',(#37),#27,.T.);
#198=ADVANCED_FACE('',(#38),#28,.T.);
#199=ADVANCED_FACE('',(#39),#29,.T.);
#200=ADVANCED_FACE('',(#40),#30,.T.);
#201=ADVANCED_FACE('',(#41,#19,#20,#21,#22),#31,.T.);
#202=ADVANCED_FACE('',(#42,#23,#24,#25,#26),#32,.F.);
#203=CLOSED_SHELL('',(#193,#194,#195,#196,#197,#198,#199,#200,#201,#202));
#204=DERIVED_UNIT_ELEMENT(#206,1.);
#205=DERIVED_UNIT_ELEMENT(#357,-3.);
#206=(
MASS_UNIT()
NAMED_UNIT(*)
SI_UNIT(.KILO.,.GRAM.)
);
#207=DERIVED_UNIT((#204,#205));
#208=MEASURE_REPRESENTATION_ITEM('density measure',
POSITIVE_RATIO_MEASURE(552.),#207);
#209=PROPERTY_DEFINITION_REPRESENTATION(#214,#211);
#210=PROPERTY_DEFINITION_REPRESENTATION(#215,#212);
#211=REPRESENTATION('material name',(#213),#352);
#212=REPRESENTATION('density',(#208),#352);
#213=DESCRIPTIVE_REPRESENTATION_ITEM('Plywood, Finish',
'Plywood, Finish');
#214=PROPERTY_DEFINITION('material property','material name',#370);
#215=PROPERTY_DEFINITION('material property','density of part',#370);
#216=AXIS2_PLACEMENT_3D('',#295,#237,#238);
#217=AXIS2_PLACEMENT_3D('',#296,#239,#240);
#218=AXIS2_PLACEMENT_3D('',#297,#241,#242);
#219=AXIS2_PLACEMENT_3D('',#299,#243,#244);
#220=AXIS2_PLACEMENT_3D('',#302,#246,#247);
#221=AXIS2_PLACEMENT_3D('',#303,#248,#249);
#222=AXIS2_PLACEMENT_3D('',#305,#250,#251);
#223=AXIS2_PLACEMENT_3D('',#308,#253,#254);
#224=AXIS2_PLACEMENT_3D('',#309,#255,#256);
#225=AXIS2_PLACEMENT_3D('',#311,#257,#258);
#226=AXIS2_PLACEMENT_3D('',#314,#260,#261);
#227=AXIS2_PLACEMENT_3D('',#315,#262,#263);
#228=AXIS2_PLACEMENT_3D('',#317,#264,#265);
#229=AXIS2_PLACEMENT_3D('',#320,#267,#268);
#230=AXIS2_PLACEMENT_3D('',#321,#269,#270);
#231=AXIS2_PLACEMENT_3D('',#330,#275,#276);
#232=AXIS2_PLACEMENT_3D('',#336,#280,#281);
#233=AXIS2_PLACEMENT_3D('',#342,#285,#286);
#234=AXIS2_PLACEMENT_3D('',#345,#289,#290);
#235=AXIS2_PLACEMENT_3D('',#346,#291,#292);
#236=AXIS2_PLACEMENT_3D('',#347,#293,#294);
#237=DIRECTION('axis',(0.,0.,1.));
#238=DIRECTION('refdir',(1.,0.,0.));
#239=DIRECTION('axis',(0.,0.,1.));
#240=DIRECTION('refdir',(1.,0.,0.));
#241=DIRECTION('center_axis',(0.,-1.,0.));
#242=DIRECTION('ref_axis',(1.,0.,0.));
#243=DIRECTION('center_axis',(3.46944695195361E-17,1.,0.));
#244=DIRECTION('ref_axis',(1.,-3.46944695195361E-17,0.));
#245=DIRECTION('',(0.,1.,0.));
#246=DIRECTION('center_axis',(3.46944695195361E-17,1.,0.));
#247=DIRECTION('ref_axis',(1.,-3.46944695195361E-17,0.));
#248=DIRECTION('center_axis',(0.,-1.,0.));
#249=DIRECTION('ref_axis',(1.,0.,0.));
#250=DIRECTION('center_axis',(3.46944695195361E-17,1.,0.));
#251=DIRECTION('ref_axis',(1.,-3.46944695195361E-17,0.));
#252=DIRECTION('',(0.,1.,0.));
#253=DIRECTION('center_axis',(3.46944695195361E-17,1.,0.));
#254=DIRECTION('ref_axis',(1.,-3.46944695195361E-17,0.));
#255=DIRECTION('center_axis',(0.,-1.,0.));
#256=DIRECTION('ref_axis',(1.,0.,0.));
#257=DIRECTION('center_axis',(3.46944695195361E-17,1.,0.));
#258=DIRECTION('ref_axis',(1.,-3.46944695195361E-17,0.));
#259=DIRECTION('',(0.,1.,0.));
#260=DIRECTION('center_axis',(3.46944695195361E-17,1.,0.));
#261=DIRECTION('ref_axis',(1.,-3.46944695195361E-17,0.));
#262=DIRECTION('center_axis',(0.,-1.,0.));
#263=DIRECTION('ref_axis',(1.,0.,0.));
#264=DIRECTION('center_axis',(3.46944695195361E-17,1.,0.));
#265=DIRECTION('ref_axis',(1.,-3.46944695195361E-17,0.));
#266=DIRECTION('',(0.,1.,0.));
#267=DIRECTION('center_axis',(3.46944695195361E-17,1.,0.));
#268=DIRECTION('ref_axis',(1.,-3.46944695195361E-17,0.));
#269=DIRECTION('center_axis',(-1.,0.,0.));
#270=DIRECTION('ref_axis',(0.,0.,-1.));
#271=DIRECTION('',(0.,0.,1.));
#272=DIRECTION('',(0.,-1.,0.));
#273=DIRECTION('',(0.,0.,-1.));
#274=DIRECTION('',(0.,-1.,0.));
#275=DIRECTION('center_axis',(0.,0.,1.));
#276=DIRECTION('ref_axis',(-1.,3.46944695195361E-17,0.));
#277=DIRECTION('',(1.,-3.46944695195361E-17,0.));
#278=DIRECTION('',(-1.,3.46944695195361E-17,0.));
#279=DIRECTION('',(0.,-1.,0.));
#280=DIRECTION('center_axis',(1.,0.,0.));
#281=DIRECTION('ref_axis',(0.,0.,1.));
#282=DIRECTION('',(0.,0.,-1.));
#283=DIRECTION('',(0.,0.,1.));
#284=DIRECTION('',(0.,-1.,0.));
#285=DIRECTION('center_axis',(0.,0.,-1.));
#286=DIRECTION('ref_axis',(1.,-3.46944695195361E-17,0.));
#287=DIRECTION('',(-1.,3.46944695195361E-17,0.));
#288=DIRECTION('',(1.,-3.46944695195361E-17,0.));
#289=DIRECTION('center_axis',(-3.46944695195361E-17,-1.,0.));
#290=DIRECTION('ref_axis',(1.,-3.46944695195361E-17,0.));
#291=DIRECTION('center_axis',(-3.46944695195361E-17,-1.,0.));
#292=DIRECTION('ref_axis',(1.,-3.46944695195361E-17,0.));
#293=DIRECTION('',(0.,0.,1.));
#294=DIRECTION('',(1.,0.,0.));
#295=CARTESIAN_POINT('',(0.,0.,0.));
#296=CARTESIAN_POINT('',(0.,0.,0.));
#297=CARTESIAN_POINT('Origin',(-4.125,-2.75,0.125));
#298=CARTESIAN_POINT('',(-4.1875,-2.84375,0.125));
#299=CARTESIAN_POINT('Origin',(-4.125,-2.84375,0.125));
#300=CARTESIAN_POINT('',(-4.1875,-2.75,0.125));
#301=CARTESIAN_POINT('',(-4.1875,-2.75,0.125));
#302=CARTESIAN_POINT('Origin',(-4.125,-2.75,0.125));
#303=CARTESIAN_POINT('Origin',(4.125,-2.75,0.125));
#304=CARTESIAN_POINT('',(4.0625,-2.84375,0.125));
#305=CARTESIAN_POINT('Origin',(4.125,-2.84375,0.125));
#306=CARTESIAN_POINT('',(4.0625,-2.75,0.125));
#307=CARTESIAN_POINT('',(4.0625,-2.75,0.125));
#308=CARTESIAN_POINT('Origin',(4.125,-2.75,0.125));
#309=CARTESIAN_POINT('Origin',(4.11815419093143,-2.75,1.58025));
#310=CARTESIAN_POINT('',(4.05565419093143,-2.84375,1.58025));
#311=CARTESIAN_POINT('Origin',(4.11815419093143,-2.84375,1.58025));
#312=CARTESIAN_POINT('',(4.05565419093143,-2.75,1.58025));
#313=CARTESIAN_POINT('',(4.05565419093143,-2.75,1.58025));
#314=CARTESIAN_POINT('Origin',(4.11815419093143,-2.75,1.58025));
#315=CARTESIAN_POINT('Origin',(-4.13184580906857,-2.75,1.58025));
#316=CARTESIAN_POINT('',(-4.19434580906857,-2.84375,1.58025));
#317=CARTESIAN_POINT('Origin',(-4.13184580906857,-2.84375,1.58025));
#318=CARTESIAN_POINT('',(-4.19434580906857,-2.75,1.58025));
#319=CARTESIAN_POINT('',(-4.19434580906857,-2.75,1.58025));
#320=CARTESIAN_POINT('Origin',(-4.13184580906857,-2.75,1.58025));
#321=CARTESIAN_POINT('Origin',(-4.25684580906856,-2.75,1.70525));
#322=CARTESIAN_POINT('',(-4.25684580906856,-2.75,-0.0447500000000011));
#323=CARTESIAN_POINT('',(-4.25684580906856,-2.75,1.70525));
#324=CARTESIAN_POINT('',(-4.25684580906856,-2.75,-0.0447500000000011));
#325=CARTESIAN_POINT('',(-4.25684580906856,-2.84375,-0.0447500000000011));
#326=CARTESIAN_POINT('',(-4.25684580906856,-2.75,-0.0447500000000011));
#327=CARTESIAN_POINT('',(-4.25684580906856,-2.84375,1.70525));
#328=CARTESIAN_POINT('',(-4.25684580906856,-2.84375,-0.0447500000000011));
#329=CARTESIAN_POINT('',(-4.25684580906856,-2.75,1.70525));
#330=CARTESIAN_POINT('Origin',(4.24315419093144,-2.75,1.70525));
#331=CARTESIAN_POINT('',(4.24315419093144,-2.75,1.70525));
#332=CARTESIAN_POINT('',(-4.25684580906856,-2.75,1.70525));
#333=CARTESIAN_POINT('',(4.24315419093144,-2.84375,1.70525));
#334=CARTESIAN_POINT('',(-4.25684580906856,-2.84375,1.70525));
#335=CARTESIAN_POINT('',(4.24315419093144,-2.75,1.70525));
#336=CARTESIAN_POINT('Origin',(4.24315419093144,-2.75,-0.0447500000000011));
#337=CARTESIAN_POINT('',(4.24315419093144,-2.75,-0.0447500000000011));
#338=CARTESIAN_POINT('',(4.24315419093144,-2.75,1.70525));
#339=CARTESIAN_POINT('',(4.24315419093144,-2.84375,-0.0447500000000011));
#340=CARTESIAN_POINT('',(4.24315419093144,-2.84375,1.70525));
#341=CARTESIAN_POINT('',(4.24315419093144,-2.75,-0.0447500000000011));
#342=CARTESIAN_POINT('Origin',(-4.25684580906856,-2.75,-0.0447500000000011));
#343=CARTESIAN_POINT('',(4.24315419093144,-2.75,-0.0447500000000011));
#344=CARTESIAN_POINT('',(4.24315419093144,-2.84375,-0.0447500000000011));
#345=CARTESIAN_POINT('Origin',(-0.0068458090685638,-2.84375,0.830249999999999));
#346=CARTESIAN_POINT('Origin',(-0.0068458090685638,-2.75,0.830249999999999));
#347=CARTESIAN_POINT('',(0.,0.,0.));
#348=UNCERTAINTY_MEASURE_WITH_UNIT(LENGTH_MEASURE(0.000393700787401575),
#355,'DISTANCE_ACCURACY_VALUE',
'Maximum model space distance between geometric entities at asserted c
onnectivities');
#349=UNCERTAINTY_MEASURE_WITH_UNIT(LENGTH_MEASURE(0.000393700787401575),
#355,'DISTANCE_ACCURACY_VALUE',
'Maximum model space distance between geometric entities at asserted c
onnectivities');
#350=UNCERTAINTY_MEASURE_WITH_UNIT(LENGTH_MEASURE(0.000393700787401575),
#355,'DISTANCE_ACCURACY_VALUE',
'Maximum model space distance between geometric entities at asserted c
onnectivities');
#351=(
GEOMETRIC_REPRESENTATION_CONTEXT(3)
GLOBAL_UNCERTAINTY_ASSIGNED_CONTEXT((#348))
GLOBAL_UNIT_ASSIGNED_CONTEXT((#355,#359,#360))
REPRESENTATION_CONTEXT('','3D')
);
#352=(
GEOMETRIC_REPRESENTATION_CONTEXT(3)
GLOBAL_UNCERTAINTY_ASSIGNED_CONTEXT((#349))
GLOBAL_UNIT_ASSIGNED_CONTEXT((#355,#359,#360))
REPRESENTATION_CONTEXT('','3D')
);
#353=(
GEOMETRIC_REPRESENTATION_CONTEXT(3)
GLOBAL_UNCERTAINTY_ASSIGNED_CONTEXT((#350))
GLOBAL_UNIT_ASSIGNED_CONTEXT((#355,#359,#360))
REPRESENTATION_CONTEXT('','3D')
);
#354=DIMENSIONAL_EXPONENTS(1.,0.,0.,0.,0.,0.,0.);
#355=(
CONVERSION_BASED_UNIT('inch',#358)
LENGTH_UNIT()
NAMED_UNIT(#354)
);
#356=(
LENGTH_UNIT()
NAMED_UNIT(*)
SI_UNIT(.MILLI.,.METRE.)
);
#357=(
LENGTH_UNIT()
NAMED_UNIT(*)
SI_UNIT($,.METRE.)
);
#358=LENGTH_MEASURE_WITH_UNIT(LENGTH_MEASURE(25.4),#356);
#359=(
NAMED_UNIT(*)
PLANE_ANGLE_UNIT()
SI_UNIT($,.RADIAN.)
);
#360=(
NAMED_UNIT(*)
SI_UNIT($,.STERADIAN.)
SOLID_ANGLE_UNIT()
);
#361=SHAPE_DEFINITION_REPRESENTATION(#363,#366);
#362=SHAPE_DEFINITION_REPRESENTATION(#364,#367);
#363=PRODUCT_DEFINITION_SHAPE('',$,#369);
#364=PRODUCT_DEFINITION_SHAPE('',$,#370);
#365=PRODUCT_DEFINITION_SHAPE($,$,#14);
#366=SHAPE_REPRESENTATION('',(#216,#236),#351);
#367=SHAPE_REPRESENTATION('',(#217),#352);
#368=PRODUCT_DEFINITION_CONTEXT('part definition',#376,'design');
#369=PRODUCT_DEFINITION('2026-07-21-01-48-40-302','RM3',#371,#368);
#370=PRODUCT_DEFINITION('2026-09-10-12-01-53-365','Front Panel',#372,#368);
#371=PRODUCT_DEFINITION_FORMATION('',$,#378);
#372=PRODUCT_DEFINITION_FORMATION('',$,#379);
#373=PRODUCT_RELATED_PRODUCT_CATEGORY('RM3','RM3',(#378));
#374=PRODUCT_RELATED_PRODUCT_CATEGORY('Front Panel','Front Panel',(#379));
#375=APPLICATION_PROTOCOL_DEFINITION('international standard',
'automotive_design',2009,#376);
#376=APPLICATION_CONTEXT(
'Core Data for Automotive Mechanical Design Process');
#377=PRODUCT_CONTEXT('part definition',#376,'mechanical');
#378=PRODUCT('2026-07-21-01-48-40-302','RM3',$,(#377));
#379=PRODUCT('2026-09-10-12-01-53-365','Front Panel',$,(#377));
#380=PRESENTATION_STYLE_ASSIGNMENT((#381));
#381=SURFACE_STYLE_USAGE(.BOTH.,#382);
#382=SURFACE_SIDE_STYLE('',(#383));
#383=SURFACE_STYLE_FILL_AREA(#384);
#384=FILL_AREA_STYLE('Surface - Matte',(#385));
#385=FILL_AREA_STYLE_COLOUR('Surface - Matte',#386);
#386=COLOUR_RGB('Surface - Matte',0.701960784313725,0.701960784313725,0.701960784313725);
ENDSEC;
END-ISO-10303-21;
